<svg xmlns="http://www.w3.org/2000/svg" xmlns:xlink="http://www.w3.org/1999/xlink" xmlns:lucid="lucid" width="1081" height="1116.43"><g transform="translate(-259.5 -44.07116653319963)" lucid:page-tab-id=".Q4MUjXso07N"><path d="M0 0h1500v1500H0z" fill="#fff"/><path d="M700 72.57a8 8 0 0 1 8-8h604a8 8 0 0 1 8 8V1132a8 8 0 0 1-8 8H708a8 8 0 0 1-8-8z" stroke="#000" fill-opacity="0"/><use xlink:href="#a" transform="matrix(1,0,0,1,708,72.57116653319963) translate(204.24197530864203 17.95555555555555)"/><use xlink:href="#b" transform="matrix(1,0,0,1,708,72.57116653319963) translate(311.35185185185185 17.95555555555555)"/><path d="M1000 360c0 33.14-35.82 60-80 60s-80-26.86-80-60 35.82-60 80-60 80 26.86 80 60z" stroke="#000" fill="#4d9eff"/><use xlink:href="#c" transform="matrix(1,0,0,1,864,324) translate(35.28395061728395 28.888888888888886)"/><use xlink:href="#d" transform="matrix(1,0,0,1,864,324) translate(12.617283950617285 50.22222222222222)"/><path d="M1260 420c0 33.14-35.82 60-80 60s-80-26.86-80-60 35.82-60 80-60 80 26.86 80 60z" stroke="#000" fill="#9391ff"/><use xlink:href="#e" transform="matrix(1,0,0,1,1124,384) translate(14.543209876543216 28.888888888888886)"/><use xlink:href="#d" transform="matrix(1,0,0,1,1124,384) translate(12.617283950617285 50.22222222222222)"/><path d="M384.04 478.35l363-251.8M384.05 478.34l-2.88 2" stroke="#3a414a" fill="none"/><path d="M747.46 226.27l.27.4-.42.28-.53-.78.45-.3z" stroke="#3a414a" stroke-width=".05" fill="#3a414a"/><path d="M384.1 485.2l714.94-285M384.1 485.2l-3.25 1.3" stroke="#3a414a" fill="none"/><path d="M1099.5 200v.5l-.3.13-.35-.88.67-.27z" stroke="#3a414a" stroke-width=".05" fill="#3a414a"/><path d="M429.8 351.25c0 25.78-20.9 46.68-46.67 46.68-25.78 0-46.68-20.9-46.68-46.68s20.9-46.68 46.68-46.68 46.68 20.9 46.68 46.68z" stroke="#333" fill="#fff"/><path d="M383.13 397.93v124.7a19.25 19.25 0 0 0 3.4 10.94L486.27 678M383.13 528.63L280 678m0-233.4h206.26" stroke="#333" fill="none"/><path d="M280 310.57a6 6 0 0 1 6-6h194.26a6 6 0 0 1 6 6V694a6 6 0 0 1-6 6H286a6 6 0 0 1-6-6z" fill="none"/><use xlink:href="#f" transform="matrix(1,0,0,1,200,678) translate(145.320987654321 17.77777777777778)"/><path d="M1260 580c0 33.14-35.82 60-80 60s-80-26.86-80-60 35.82-60 80-60 80 26.86 80 60z" stroke="#000" fill="#9391ff"/><use xlink:href="#g" transform="matrix(1,0,0,1,1124,544) translate(25.925925925925924 28.888888888888886)"/><use xlink:href="#d" transform="matrix(1,0,0,1,1124,544) translate(12.617283950617285 50.22222222222222)"/><path d="M1000 620.45c0 33.14-35.82 60-80 60s-80-26.86-80-60 35.82-60 80-60 80 26.86 80 60z" stroke="#000" fill="#4d9eff"/><use xlink:href="#h" transform="matrix(1,0,0,1,864,584.4492903495393) translate(6.2222222222222285 39.55555555555556)"/><use xlink:href="#i" transform="matrix(1,0,0,1,864,584.4492903495393) translate(52.5925925925926 39.55555555555556)"/><path d="M996.37 841.8c0 33.13-35.82 60-80 60s-80-26.87-80-60c0-33.14 35.82-60 80-60s80 26.86 80 60z" stroke="#000" fill="#4d9eff"/><use xlink:href="#j" transform="matrix(1,0,0,1,860.368381,805.797161398157) translate(32.525 28.799999999999997)"/><use xlink:href="#k" transform="matrix(1,0,0,1,860.368381,805.797161398157) translate(15.124999999999993 50.4)"/><path d="M900 200c0 33.14-35.82 60-80 60s-80-26.86-80-60 35.82-60 80-60 80 26.86 80 60z" stroke="#000" fill="#00c2a8"/><use xlink:href="#l" transform="matrix(1,0,0,1,764,164) translate(19.599999999999994 28.799999999999997)"/><use xlink:href="#m" transform="matrix(1,0,0,1,764,164) translate(25.074999999999996 50.4)"/><path d="M1260 200c0 33.14-35.82 60-80 60s-80-26.86-80-60 35.82-60 80-60 80 26.86 80 60z" stroke="#000" fill="#00c2a8"/><use xlink:href="#n" transform="matrix(1,0,0,1,1124,164) translate(8.574999999999996 39.6)"/><use xlink:href="#o" transform="matrix(1,0,0,1,1124,164) translate(59.475 39.6)"/><path d="M1260 780c0 33.14-35.82 60-80 60s-80-26.86-80-60 35.82-60 80-60 80 26.86 80 60z" stroke="#000" fill="#9391ff"/><use xlink:href="#e" transform="matrix(1,0,0,1,1124,744) translate(14.543209876543216 28.888888888888886)"/><use xlink:href="#i" transform="matrix(1,0,0,1,1124,744) translate(29.407407407407412 50.22222222222222)"/><path d="M384.12 490.94l459.46-110.7M384.13 490.94l-3.42.82" stroke="#3a414a" fill="none"/><path d="M844.22 380.46l.05.1-.6.15-.2-.92.4-.1z" stroke="#3a414a" stroke-width=".05" fill="#3a414a"/><path d="M384.13 492.68l721.75-48.17M384.14 492.68l-3.5.23" stroke="#3a414a" fill="none"/><path d="M1106.66 444.93l-.76.05-.06-.95h.27z" stroke="#3a414a" stroke-width=".05" fill="#3a414a"/><path d="M384.13 500.72l731.43 42.52M384.14 500.72l-3.5-.2" stroke="#3a414a" fill="none"/><path d="M1116.5 542.82l-.88.9h-.1l.06-.96z" stroke="#3a414a" stroke-width=".05" fill="#3a414a"/><path d="M384.12 508.78l462.6 85.7M384.14 508.78l-3.46-.64" stroke="#3a414a" fill="none"/><path d="M847.5 594.14l-.3.43-.24.43-.34-.06.18-.94z" stroke="#3a414a" stroke-width=".05" fill="#3a414a"/><path d="M876.37 1061.8c0 33.13-35.82 60-80 60s-80-26.87-80-60c0-33.14 35.82-60 80-60s80 26.86 80 60z" stroke="#000" fill="#ff80df"/><use xlink:href="#p" transform="matrix(1,0,0,1,740.368381,1025.7971613981572) translate(33.05 18)"/><use xlink:href="#q" transform="matrix(1,0,0,1,740.368381,1025.7971613981572) translate(3.0249999999999986 39.6)"/><use xlink:href="#r" transform="matrix(1,0,0,1,740.368381,1025.7971613981572) translate(84.025 39.6)"/><use xlink:href="#s" transform="matrix(1,0,0,1,740.368381,1025.7971613981572) translate(15.549999999999997 61.2)"/><path d="M1116.37 1061.8c0 33.13-35.82 60-80 60s-80-26.87-80-60c0-33.14 35.82-60 80-60s80 26.86 80 60z" stroke="#000" fill="#ff80df"/><use xlink:href="#p" transform="matrix(1,0,0,1,980.368381,1025.7971613981572) translate(33.05 18)"/><use xlink:href="#q" transform="matrix(1,0,0,1,980.368381,1025.7971613981572) translate(3.0249999999999986 39.6)"/><use xlink:href="#r" transform="matrix(1,0,0,1,980.368381,1025.7971613981572) translate(84.025 39.6)"/><use xlink:href="#t" transform="matrix(1,0,0,1,980.368381,1025.7971613981572) translate(31.025 61.2)"/><path d="M796.37 1000.8v-37a12 12 0 0 1 12-12h96a12 12 0 0 0 12-12v-14.5" stroke="#333" fill="none"/><path d="M796.84 1001.3h-.95v-.52h.94z" stroke="#333" stroke-width=".05" fill="#333"/><path d="M916.37 903.28l12.72 21.52h-25.46z" stroke="#333" fill="#fff"/><path d="M1036.37 1000.8v-37a12 12 0 0 0-12-12h-96a12 12 0 0 1-12-12v-14.5" stroke="#333" fill="none"/><path d="M1036.84 1001.3h-.96v-.52h.96z" stroke="#333" stroke-width=".05" fill="#333"/><path d="M916.37 903.28l12.72 21.52h-25.46z" stroke="#333" fill="#fff"/><path d="M384.1 508.08l717.55 256.43M384.1 508.08l-3.3-1.18" stroke="#3a414a" fill="none"/><path d="M1102.3 764.23l-.33.9-.5-.18.33-.9z" stroke="#3a414a" stroke-width=".05" fill="#3a414a"/><path d="M384.06 519.36l474.48 279.8M384.07 519.36l-3.02-1.78" stroke="#3a414a" fill="none"/><path d="M859.37 799.1l-.8.63-.28-.17.47-.82z" stroke="#3a414a" stroke-width=".05" fill="#3a414a"/><defs><path fill="#3a414a" d="M160-131c35 5 61 23 61 61C221 17 115-2 30 0v-248c76 3 177-17 177 60 0 33-19 50-47 57zm-97-11c50-1 110 9 110-42 0-47-63-36-110-37v79zm0 115c55-2 124 14 124-45 0-56-70-42-124-44v89" id="u"/><path fill="#3a414a" d="M100-194c62-1 85 37 85 99 1 63-27 99-86 99S16-35 15-95c0-66 28-99 85-99zM99-20c44 1 53-31 53-75 0-43-8-75-51-75s-53 32-53 75 10 74 51 75" id="v"/><path fill="#3a414a" d="M143 0L79-87 56-68V0H24v-261h32v163l83-92h37l-77 82L181 0h-38" id="w"/><path fill="#3a414a" d="M210-169c-67 3-38 105-44 169h-31v-121c0-29-5-50-35-48C34-165 62-65 56 0H25l-1-190h30c1 10-1 24 2 32 10-44 99-50 107 0 11-21 27-35 58-36 85-2 47 119 55 194h-31v-121c0-29-5-49-35-48" id="x"/><path fill="#3a414a" d="M141-36C126-15 110 5 73 4 37 3 15-17 15-53c-1-64 63-63 125-63 3-35-9-54-41-54-24 1-41 7-42 31l-33-3c5-37 33-52 76-52 45 0 72 20 72 64v82c-1 20 7 32 28 27v20c-31 9-61-2-59-35zM48-53c0 20 12 33 32 33 41-3 63-29 60-74-43 2-92-5-92 41" id="y"/><path fill="#3a414a" d="M114-163C36-179 61-72 57 0H25l-1-190h30c1 12-1 29 2 39 6-27 23-49 58-41v29" id="z"/><g id="a"><use transform="matrix(0.06234567901234565,0,0,0.06234567901234565,0,0)" xlink:href="#u"/><use transform="matrix(0.06234567901234565,0,0,0.06234567901234565,14.962962962962957,0)" xlink:href="#v"/><use transform="matrix(0.06234567901234565,0,0,0.06234567901234565,27.432098765432087,0)" xlink:href="#v"/><use transform="matrix(0.06234567901234565,0,0,0.06234567901234565,39.90123456790122,0)" xlink:href="#w"/><use transform="matrix(0.06234567901234565,0,0,0.06234567901234565,51.12345679012344,0)" xlink:href="#x"/><use transform="matrix(0.06234567901234565,0,0,0.06234567901234565,69.7648148148148,0)" xlink:href="#y"/><use transform="matrix(0.06234567901234565,0,0,0.06234567901234565,82.23395061728392,0)" xlink:href="#z"/><use transform="matrix(0.06234567901234565,0,0,0.06234567901234565,89.65308641975305,0)" xlink:href="#w"/></g><path fill="#3a414a" d="M240 0l2-218c-23 76-54 145-80 218h-23L58-218 59 0H30v-248h44l77 211c21-75 51-140 76-211h43V0h-30" id="A"/><path fill="#3a414a" d="M117-194c89-4 53 116 60 194h-32v-121c0-31-8-49-39-48C34-167 62-67 57 0H25l-1-190h30c1 10-1 24 2 32 11-22 29-35 61-36" id="B"/><path fill="#3a414a" d="M177-190C167-65 218 103 67 71c-23-6-38-20-44-43l32-5c15 47 100 32 89-28v-30C133-14 115 1 83 1 29 1 15-40 15-95c0-56 16-97 71-98 29-1 48 16 59 35 1-10 0-23 2-32h30zM94-22c36 0 50-32 50-73 0-42-14-75-50-75-39 0-46 34-46 75s6 73 46 73" id="C"/><path fill="#3a414a" d="M100-194c63 0 86 42 84 106H49c0 40 14 67 53 68 26 1 43-12 49-29l28 8c-11 28-37 45-77 45C44 4 14-33 15-96c1-61 26-98 85-98zm52 81c6-60-76-77-97-28-3 7-6 17-6 28h103" id="D"/><g id="b"><use transform="matrix(0.06234567901234565,0,0,0.06234567901234565,0,0)" xlink:href="#A"/><use transform="matrix(0.06234567901234565,0,0,0.06234567901234565,18.64135802469135,0)" xlink:href="#y"/><use transform="matrix(0.06234567901234565,0,0,0.06234567901234565,31.110493827160482,0)" xlink:href="#B"/><use transform="matrix(0.06234567901234565,0,0,0.06234567901234565,43.579629629629615,0)" xlink:href="#y"/><use transform="matrix(0.06234567901234565,0,0,0.06234567901234565,56.04876543209875,0)" xlink:href="#C"/><use transform="matrix(0.06234567901234565,0,0,0.06234567901234565,68.51790123456787,0)" xlink:href="#D"/><use transform="matrix(0.06234567901234565,0,0,0.06234567901234565,80.987037037037,0)" xlink:href="#z"/></g><path fill="#3a414a" d="M67-125c0 53 21 87 73 88 37 1 54-22 65-47l45 17C233-25 199 4 140 4 58 4 20-42 15-125 8-235 124-281 211-232c18 10 29 29 36 50l-46 12c-8-25-30-41-62-41-52 0-71 34-72 86" id="E"/><path fill="#3a414a" d="M135-150c-39-12-60 13-60 57V0H25l-1-190h47c2 13-1 29 3 40 6-28 27-53 61-41v41" id="F"/><path fill="#3a414a" d="M25-224v-37h50v37H25zM25 0v-190h50V0H25" id="G"/><path fill="#3a414a" d="M133-34C117-15 103 5 69 4 32 3 11-16 11-54c-1-60 55-63 116-61 1-26-3-47-28-47-18 1-26 9-28 27l-52-2c7-38 36-58 82-57s74 22 75 68l1 82c-1 14 12 18 25 15v27c-30 8-71 5-69-32zm-48 3c29 0 43-24 42-57-32 0-66-3-65 30 0 17 8 27 23 27" id="H"/><g id="c"><use transform="matrix(0.049382716049382706,0,0,0.049382716049382706,0,0)" xlink:href="#E"/><use transform="matrix(0.049382716049382706,0,0,0.049382716049382706,12.790123456790122,0)" xlink:href="#F"/><use transform="matrix(0.049382716049382706,0,0,0.049382716049382706,19.703703703703702,0)" xlink:href="#G"/><use transform="matrix(0.049382716049382706,0,0,0.049382716049382706,24.641975308641975,0)" xlink:href="#H"/><use transform="matrix(0.049382716049382706,0,0,0.049382716049382706,34.51851851851852,0)" xlink:href="#F"/></g><path fill="#3a414a" d="M182-130c37 4 62 22 62 59C244 23 116-4 24 0v-248c84 5 203-23 205 63 0 31-19 50-47 55zM76-148c40-3 101 13 101-30 0-44-60-28-101-31v61zm0 110c48-3 116 14 116-37 0-48-69-32-116-35v72" id="I"/><path fill="#3a414a" d="M110-194c64 0 96 36 96 99 0 64-35 99-97 99-61 0-95-36-95-99 0-62 34-99 96-99zm-1 164c35 0 45-28 45-65 0-40-10-65-43-65-34 0-45 26-45 65 0 36 10 65 43 65" id="J"/><path fill="#3a414a" d="M147 0L96-86 75-71V0H25v-261h50v150l67-79h53l-66 74L201 0h-54" id="K"/><path fill="#3a414a" d="M220-157c-53 9-28 100-34 157h-49v-107c1-27-5-49-29-50C55-147 81-57 75 0H25l-1-190h47c2 12-1 28 3 38 10-53 101-56 108 0 13-22 24-43 59-42 82 1 51 116 57 194h-49v-107c-1-25-5-48-29-50" id="L"/><g id="d"><use transform="matrix(0.049382716049382706,0,0,0.049382716049382706,0,0)" xlink:href="#I"/><use transform="matrix(0.049382716049382706,0,0,0.049382716049382706,12.790123456790122,0)" xlink:href="#J"/><use transform="matrix(0.049382716049382706,0,0,0.049382716049382706,23.604938271604937,0)" xlink:href="#J"/><use transform="matrix(0.049382716049382706,0,0,0.049382716049382706,34.419753086419746,0)" xlink:href="#K"/><use transform="matrix(0.049382716049382706,0,0,0.049382716049382706,44.29629629629629,0)" xlink:href="#L"/><use transform="matrix(0.049382716049382706,0,0,0.049382716049382706,60.09876543209875,0)" xlink:href="#H"/><use transform="matrix(0.049382716049382706,0,0,0.049382716049382706,69.9753086419753,0)" xlink:href="#F"/><use transform="matrix(0.049382716049382706,0,0,0.049382716049382706,76.88888888888889,0)" xlink:href="#K"/></g><path fill="#3a414a" d="M67-125c0 54 23 88 75 88 28 0 53-7 68-21v-34h-60v-39h108v91C232-14 192 4 140 4 58 4 20-42 15-125 8-236 126-280 215-234c19 10 29 26 37 47l-47 15c-11-23-29-39-63-39-53 1-75 33-75 86" id="M"/><path fill="#3a414a" d="M185-48c-13 30-37 53-82 52C43 2 14-33 14-96s30-98 90-98c62 0 83 45 84 108H66c0 31 8 55 39 56 18 0 30-7 34-22zm-45-69c5-46-57-63-70-21-2 6-4 13-4 21h74" id="N"/><path fill="#3a414a" d="M135-194c87-1 58 113 63 194h-50c-7-57 23-157-34-157-59 0-34 97-39 157H25l-1-190h47c2 12-1 28 3 38 12-26 28-41 61-42" id="O"/><path fill="#3a414a" d="M190-63c-7 42-38 67-86 67-59 0-84-38-90-98-12-110 154-137 174-36l-49 2c-2-19-15-32-35-32-30 0-35 28-38 64-6 74 65 87 74 30" id="P"/><g id="e"><use transform="matrix(0.049382716049382706,0,0,0.049382716049382706,0,0)" xlink:href="#M"/><use transform="matrix(0.049382716049382706,0,0,0.049382716049382706,13.827160493827158,0)" xlink:href="#N"/><use transform="matrix(0.049382716049382706,0,0,0.049382716049382706,23.7037037037037,0)" xlink:href="#F"/><use transform="matrix(0.049382716049382706,0,0,0.049382716049382706,30.617283950617278,0)" xlink:href="#N"/><use transform="matrix(0.049382716049382706,0,0,0.049382716049382706,40.49382716049382,0)" xlink:href="#O"/><use transform="matrix(0.049382716049382706,0,0,0.049382716049382706,51.30864197530863,0)" xlink:href="#P"/><use transform="matrix(0.049382716049382706,0,0,0.049382716049382706,61.185185185185176,0)" xlink:href="#G"/><use transform="matrix(0.049382716049382706,0,0,0.049382716049382706,66.12345679012344,0)" xlink:href="#H"/><use transform="matrix(0.049382716049382706,0,0,0.049382716049382706,75.99999999999999,0)" xlink:href="#F"/></g><path fill="#3a414a" d="M232-93c-1 65-40 97-104 97C67 4 28-28 28-90v-158h33c8 89-33 224 67 224 102 0 64-133 71-224h33v155" id="Q"/><path fill="#3a414a" d="M135-143c-3-34-86-38-87 0 15 53 115 12 119 90S17 21 10-45l28-5c4 36 97 45 98 0-10-56-113-15-118-90-4-57 82-63 122-42 12 7 21 19 24 35" id="R"/><path fill="#3a414a" d="M84 4C-5 8 30-112 23-190h32v120c0 31 7 50 39 49 72-2 45-101 50-169h31l1 190h-30c-1-10 1-25-2-33-11 22-28 36-60 37" id="S"/><path fill="#3a414a" d="M141-36C126-15 110 5 73 4 37 3 15-17 15-53c-1-64 63-63 125-63 3-35-9-54-41-54-24 1-41 7-42 31l-33-3c5-37 33-52 76-52 45 0 72 20 72 64v82c-1 20 7 32 28 27v20c-31 9-61-2-59-35zM48-53c0 20 12 33 32 33 41-3 63-29 60-74-43 2-92-5-92 41zm25-158c8-23 27-35 38-54h36v5l-58 49H73" id="T"/><path fill="#3a414a" d="M24-231v-30h32v30H24zM24 0v-190h32V0H24" id="U"/><g id="f"><use transform="matrix(0.06172839506172839,0,0,0.06172839506172839,0,0)" xlink:href="#Q"/><use transform="matrix(0.06172839506172839,0,0,0.06172839506172839,15.987654320987653,0)" xlink:href="#R"/><use transform="matrix(0.06172839506172839,0,0,0.06172839506172839,27.098765432098766,0)" xlink:href="#S"/><use transform="matrix(0.06172839506172839,0,0,0.06172839506172839,39.44444444444444,0)" xlink:href="#T"/><use transform="matrix(0.06172839506172839,0,0,0.06172839506172839,51.79012345679012,0)" xlink:href="#z"/><use transform="matrix(0.06172839506172839,0,0,0.06172839506172839,59.1358024691358,0)" xlink:href="#U"/><use transform="matrix(0.06172839506172839,0,0,0.06172839506172839,64.01234567901234,0)" xlink:href="#v"/></g><path fill="#3a414a" d="M85 4C-2 5 27-109 22-190h50c7 57-23 150 33 157 60-5 35-97 40-157h50l1 190h-47c-2-12 1-28-3-38-12 25-28 42-61 42" id="V"/><path fill="#3a414a" d="M137-138c1-29-70-34-71-4 15 46 118 7 119 86 1 83-164 76-172 9l43-7c4 19 20 25 44 25 33 8 57-30 24-41C81-84 22-81 20-136c-2-80 154-74 161-7" id="W"/><g id="g"><use transform="matrix(0.049382716049382706,0,0,0.049382716049382706,0,0)" xlink:href="#I"/><use transform="matrix(0.049382716049382706,0,0,0.049382716049382706,12.790123456790122,0)" xlink:href="#V"/><use transform="matrix(0.049382716049382706,0,0,0.049382716049382706,23.604938271604937,0)" xlink:href="#W"/><use transform="matrix(0.049382716049382706,0,0,0.049382716049382706,33.48148148148148,0)" xlink:href="#P"/><use transform="matrix(0.049382716049382706,0,0,0.049382716049382706,43.358024691358025,0)" xlink:href="#H"/><use transform="matrix(0.049382716049382706,0,0,0.049382716049382706,53.23456790123457,0)" xlink:href="#F"/></g><g id="h"><use transform="matrix(0.049382716049382706,0,0,0.049382716049382706,0,0)" xlink:href="#E"/><use transform="matrix(0.049382716049382706,0,0,0.049382716049382706,12.790123456790122,0)" xlink:href="#F"/><use transform="matrix(0.049382716049382706,0,0,0.049382716049382706,19.703703703703702,0)" xlink:href="#G"/><use transform="matrix(0.049382716049382706,0,0,0.049382716049382706,24.641975308641975,0)" xlink:href="#H"/><use transform="matrix(0.049382716049382706,0,0,0.049382716049382706,34.51851851851852,0)" xlink:href="#F"/></g><path fill="#3a414a" d="M135-194c53 0 70 44 70 98 0 56-19 98-73 100-31 1-45-17-59-34 3 33 2 69 2 105H25l-1-265h48c2 10 0 23 3 31 11-24 29-35 60-35zM114-30c33 0 39-31 40-66 0-38-9-64-40-64-56 0-55 130 0 130" id="X"/><g id="i"><use transform="matrix(0.049382716049382706,0,0,0.049382716049382706,0,0)" xlink:href="#M"/><use transform="matrix(0.049382716049382706,0,0,0.049382716049382706,13.827160493827158,0)" xlink:href="#F"/><use transform="matrix(0.049382716049382706,0,0,0.049382716049382706,20.740740740740737,0)" xlink:href="#V"/><use transform="matrix(0.049382716049382706,0,0,0.049382716049382706,31.55555555555555,0)" xlink:href="#X"/><use transform="matrix(0.049382716049382706,0,0,0.049382716049382706,42.37037037037037,0)" xlink:href="#J"/></g><path fill="#3a414a" d="M76-208v77h127v40H76V0H24v-248h183v40H76" id="Y"/><path fill="#3a414a" d="M12 0v-35l95-120H19v-35h142v35L67-36h103V0H12" id="Z"/><g id="j"><use transform="matrix(0.05,0,0,0.05,0,0)" xlink:href="#Y"/><use transform="matrix(0.05,0,0,0.05,10.950000000000001,0)" xlink:href="#H"/><use transform="matrix(0.05,0,0,0.05,20.950000000000003,0)" xlink:href="#Z"/><use transform="matrix(0.05,0,0,0.05,29.950000000000003,0)" xlink:href="#N"/><use transform="matrix(0.05,0,0,0.05,39.95,0)" xlink:href="#F"/></g><path fill="#3a414a" d="M199 0l-22-63H83L61 0H9l90-248h61L250 0h-51zm-33-102l-36-108c-10 38-24 72-36 108h72" id="aa"/><path fill="#3a414a" d="M115-3C79 11 28 4 28-45v-112H4v-33h27l15-45h31v45h36v33H77v99c-1 23 16 31 38 25v30" id="ab"/><path fill="#3a414a" d="M190-63c-7 42-38 67-86 67-59 0-84-38-90-98-12-110 154-137 174-36l-49 2c-2-19-15-32-35-32-30 0-35 28-38 64-6 74 65 87 74 30zm-84 77c20 1 33 9 33 27 0 32-36 36-71 33V53c15 1 39 4 39-11 0-13-16-12-31-12L87 0h25" id="ac"/><path fill="#3a414a" d="M132-34C116-15 102 5 68 4 31 3 10-16 10-54c-1-60 55-63 116-61 1-26-3-47-28-47-18 1-26 9-28 27l-52-2c7-38 36-58 82-57s74 22 75 68l1 82c-1 14 12 18 25 15v27c-30 8-71 5-69-32zm-48 3c29 0 43-24 42-57-32 0-66-3-65 30 0 17 8 27 23 27zm82-228c-2 27-9 52-40 51-27-1-66-46-73 0H29c0-29 9-51 39-51 28 0 66 44 74 0h24" id="ad"/><g id="k"><use transform="matrix(0.05,0,0,0.05,0,0)" xlink:href="#aa"/><use transform="matrix(0.05,0,0,0.05,12.950000000000001,0)" xlink:href="#O"/><use transform="matrix(0.05,0,0,0.05,23.900000000000002,0)" xlink:href="#J"/><use transform="matrix(0.05,0,0,0.05,34.85,0)" xlink:href="#ab"/><use transform="matrix(0.05,0,0,0.05,40.800000000000004,0)" xlink:href="#H"/><use transform="matrix(0.05,0,0,0.05,50.800000000000004,0)" xlink:href="#ac"/><use transform="matrix(0.05,0,0,0.05,60.800000000000004,0)" xlink:href="#ad"/><use transform="matrix(0.05,0,0,0.05,70.80000000000001,0)" xlink:href="#J"/></g><path d="M233-177c-1 41-23 64-60 70L243 0h-38l-65-103H63V0H30v-248c88 3 205-21 203 71zM63-129c60-2 137 13 137-47 0-61-80-42-137-45v92" id="ae"/><path d="M100-194c63 0 86 42 84 106H49c0 40 14 67 53 68 26 1 43-12 49-29l28 8c-11 28-37 45-77 45C44 4 14-33 15-96c1-61 26-98 85-98zm52 81c6-60-76-77-97-28-3 7-6 17-6 28h103" id="af"/><path d="M177-190C167-65 218 103 67 71c-23-6-38-20-44-43l32-5c15 47 100 32 89-28v-30C133-14 115 1 83 1 29 1 15-40 15-95c0-56 16-97 71-98 29-1 48 16 59 35 1-10 0-23 2-32h30zM94-22c36 0 50-32 50-73 0-42-14-75-50-75-39 0-46 34-46 75s6 73 46 73" id="ag"/><path d="M24-231v-30h32v30H24zM24 0v-190h32V0H24" id="ah"/><path d="M135-143c-3-34-86-38-87 0 15 53 115 12 119 90S17 21 10-45l28-5c4 36 97 45 98 0-10-56-113-15-118-90-4-57 82-63 122-42 12 7 21 19 24 35" id="ai"/><path d="M59-47c-2 24 18 29 38 22v24C64 9 27 4 27-40v-127H5v-23h24l9-43h21v43h35v23H59v120" id="aj"/><path d="M114-163C36-179 61-72 57 0H25l-1-190h30c1 12-1 29 2 39 6-27 23-49 58-41v29" id="ak"/><path d="M141-36C126-15 110 5 73 4 37 3 15-17 15-53c-1-64 63-63 125-63 3-35-9-54-41-54-24 1-41 7-42 31l-33-3c5-37 33-52 76-52 45 0 72 20 72 64v82c-1 20 7 32 28 27v20c-31 9-61-2-59-35zM48-53c0 20 12 33 32 33 41-3 63-29 60-74-43 2-92-5-92 41" id="al"/><g id="l"><use transform="matrix(0.05,0,0,0.05,0,0)" xlink:href="#ae"/><use transform="matrix(0.05,0,0,0.05,12.950000000000001,0)" xlink:href="#af"/><use transform="matrix(0.05,0,0,0.05,22.950000000000003,0)" xlink:href="#ag"/><use transform="matrix(0.05,0,0,0.05,32.95,0)" xlink:href="#ah"/><use transform="matrix(0.05,0,0,0.05,36.900000000000006,0)" xlink:href="#ai"/><use transform="matrix(0.05,0,0,0.05,45.900000000000006,0)" xlink:href="#aj"/><use transform="matrix(0.05,0,0,0.05,50.900000000000006,0)" xlink:href="#ak"/><use transform="matrix(0.05,0,0,0.05,56.85,0)" xlink:href="#al"/><use transform="matrix(0.05,0,0,0.05,66.85000000000001,0)" xlink:href="#ak"/></g><path d="M232-93c-1 65-40 97-104 97C67 4 28-28 28-90v-158h33c8 89-33 224 67 224 102 0 64-133 71-224h33v155" id="am"/><path d="M84 4C-5 8 30-112 23-190h32v120c0 31 7 50 39 49 72-2 45-101 50-169h31l1 190h-30c-1-10 1-25-2-33-11 22-28 36-60 37" id="an"/><path d="M141-36C126-15 110 5 73 4 37 3 15-17 15-53c-1-64 63-63 125-63 3-35-9-54-41-54-24 1-41 7-42 31l-33-3c5-37 33-52 76-52 45 0 72 20 72 64v82c-1 20 7 32 28 27v20c-31 9-61-2-59-35zM48-53c0 20 12 33 32 33 41-3 63-29 60-74-43 2-92-5-92 41zm25-158c8-23 27-35 38-54h36v5l-58 49H73" id="ao"/><path d="M100-194c62-1 85 37 85 99 1 63-27 99-86 99S16-35 15-95c0-66 28-99 85-99zM99-20c44 1 53-31 53-75 0-43-8-75-51-75s-53 32-53 75 10 74 51 75" id="ap"/><g id="m"><use transform="matrix(0.05,0,0,0.05,0,0)" xlink:href="#am"/><use transform="matrix(0.05,0,0,0.05,12.950000000000001,0)" xlink:href="#ai"/><use transform="matrix(0.05,0,0,0.05,21.950000000000003,0)" xlink:href="#an"/><use transform="matrix(0.05,0,0,0.05,31.950000000000003,0)" xlink:href="#ao"/><use transform="matrix(0.05,0,0,0.05,41.95,0)" xlink:href="#ak"/><use transform="matrix(0.05,0,0,0.05,47.900000000000006,0)" xlink:href="#ah"/><use transform="matrix(0.05,0,0,0.05,51.85,0)" xlink:href="#ap"/></g><path d="M63-220v92h138v28H63V0H30v-248h175v28H63" id="aq"/><path d="M9 0v-24l116-142H16v-24h144v24L44-24h123V0H9" id="ar"/><g id="n"><use transform="matrix(0.05,0,0,0.05,0,0)" xlink:href="#aq"/><use transform="matrix(0.05,0,0,0.05,10.950000000000001,0)" xlink:href="#al"/><use transform="matrix(0.05,0,0,0.05,20.950000000000003,0)" xlink:href="#ar"/><use transform="matrix(0.05,0,0,0.05,29.950000000000003,0)" xlink:href="#af"/><use transform="matrix(0.05,0,0,0.05,39.95,0)" xlink:href="#ak"/></g><path d="M30 0v-248h33v221h125V0H30" id="as"/><path d="M117-194c89-4 53 116 60 194h-32v-121c0-31-8-49-39-48C34-167 62-67 57 0H25l-1-190h30c1 10-1 24 2 32 11-22 29-35 61-36" id="at"/><g id="o"><use transform="matrix(0.05,0,0,0.05,0,0)" xlink:href="#as"/><use transform="matrix(0.05,0,0,0.05,10,0)" xlink:href="#ap"/><use transform="matrix(0.05,0,0,0.05,20,0)" xlink:href="#ag"/><use transform="matrix(0.05,0,0,0.05,30,0)" xlink:href="#ah"/><use transform="matrix(0.05,0,0,0.05,33.95,0)" xlink:href="#at"/></g><g id="p"><use transform="matrix(0.05,0,0,0.05,0,0)" xlink:href="#aq"/><use transform="matrix(0.05,0,0,0.05,10.950000000000001,0)" xlink:href="#al"/><use transform="matrix(0.05,0,0,0.05,20.950000000000003,0)" xlink:href="#ar"/><use transform="matrix(0.05,0,0,0.05,29.950000000000003,0)" xlink:href="#af"/><use transform="matrix(0.05,0,0,0.05,39.95,0)" xlink:href="#ak"/></g><path d="M205 0l-28-72H64L36 0H1l101-248h38L239 0h-34zm-38-99l-47-123c-12 45-31 82-46 123h93" id="au"/><path d="M96-169c-40 0-48 33-48 73s9 75 48 75c24 0 41-14 43-38l32 2c-6 37-31 61-74 61-59 0-76-41-82-99-10-93 101-131 147-64 4 7 5 14 7 22l-32 3c-4-21-16-35-41-35zm3 187c19-1 33 8 33 26 0 31-30 33-64 32V58c18 2 39 4 41-13 1-15-18-13-34-13L87 0h19" id="av"/><path d="M141-36C126-15 110 5 73 4 37 3 15-17 15-53c-1-64 63-63 125-63 3-35-9-54-41-54-24 1-41 7-42 31l-33-3c5-37 33-52 76-52 45 0 72 20 72 64v82c-1 20 7 32 28 27v20c-31 9-61-2-59-35zM48-53c0 20 12 33 32 33 41-3 63-29 60-74-43 2-92-5-92 41zm117-205c-3 23-9 48-36 47-26-1-65-44-74 0H39c4-23 8-48 36-47s64 44 74 0h16" id="aw"/><g id="q"><use transform="matrix(0.05,0,0,0.05,0,0)" xlink:href="#au"/><use transform="matrix(0.05,0,0,0.05,12,0)" xlink:href="#at"/><use transform="matrix(0.05,0,0,0.05,22,0)" xlink:href="#ap"/><use transform="matrix(0.05,0,0,0.05,32,0)" xlink:href="#aj"/><use transform="matrix(0.05,0,0,0.05,37,0)" xlink:href="#al"/><use transform="matrix(0.05,0,0,0.05,47,0)" xlink:href="#av"/><use transform="matrix(0.05,0,0,0.05,56,0)" xlink:href="#aw"/><use transform="matrix(0.05,0,0,0.05,66,0)" xlink:href="#ap"/></g><path d="M210-169c-67 3-38 105-44 169h-31v-121c0-29-5-50-35-48C34-165 62-65 56 0H25l-1-190h30c1 10-1 24 2 32 10-44 99-50 107 0 11-21 27-35 58-36 85-2 47 119 55 194h-31v-121c0-29-5-49-35-48" id="ax"/><g id="r"><use transform="matrix(0.05,0,0,0.05,0,0)" xlink:href="#af"/><use transform="matrix(0.05,0,0,0.05,10,0)" xlink:href="#ax"/></g><path d="M160-131c35 5 61 23 61 61C221 17 115-2 30 0v-248c76 3 177-17 177 60 0 33-19 50-47 57zm-97-11c50-1 110 9 110-42 0-47-63-36-110-37v79zm0 115c55-2 124 14 124-45 0-56-70-42-124-44v89" id="ay"/><path d="M143 0L79-87 56-68V0H24v-261h32v163l83-92h37l-77 82L181 0h-38" id="az"/><g id="s"><use transform="matrix(0.05,0,0,0.05,0,0)" xlink:href="#ay"/><use transform="matrix(0.05,0,0,0.05,12,0)" xlink:href="#ap"/><use transform="matrix(0.05,0,0,0.05,22,0)" xlink:href="#ap"/><use transform="matrix(0.05,0,0,0.05,32,0)" xlink:href="#az"/><use transform="matrix(0.05,0,0,0.05,41,0)" xlink:href="#ax"/><use transform="matrix(0.05,0,0,0.05,55.95,0)" xlink:href="#al"/><use transform="matrix(0.05,0,0,0.05,65.95,0)" xlink:href="#ak"/><use transform="matrix(0.05,0,0,0.05,71.9,0)" xlink:href="#az"/></g><path d="M143 4C61 4 22-44 18-125c-5-107 100-154 193-111 17 8 29 25 37 43l-32 9c-13-25-37-40-76-40-61 0-88 39-88 99 0 61 29 100 91 101 35 0 62-11 79-27v-45h-74v-28h105v86C228-13 192 4 143 4" id="aA"/><path d="M115-194c55 1 70 41 70 98S169 2 115 4C84 4 66-9 55-30l1 105H24l-1-265h31l2 30c10-21 28-34 59-34zm-8 174c40 0 45-34 45-75s-6-73-45-74c-42 0-51 32-51 76 0 43 10 73 51 73" id="aB"/><g id="t"><use transform="matrix(0.05,0,0,0.05,0,0)" xlink:href="#aA"/><use transform="matrix(0.05,0,0,0.05,14,0)" xlink:href="#ak"/><use transform="matrix(0.05,0,0,0.05,19.95,0)" xlink:href="#an"/><use transform="matrix(0.05,0,0,0.05,29.950000000000003,0)" xlink:href="#aB"/><use transform="matrix(0.05,0,0,0.05,39.95,0)" xlink:href="#ap"/></g></defs></g></svg>